# File created by Blade
# Date/Time:  Wed Jan 21 14:43:55 2015
# Frame Rate: 120.000 fps
#------------------------------------------------------
:FULLY-SPECIFIED
:DEGREES
1366
root 17.665707 35.630274 -20.387007 -169.035336 -4.856813 178.420797
Spine -22.669978 -2.240802 12.323289
Head 25.516296 -5.446234 16.744729
LeftShoulder -17.705985 -65.558100 67.767157
LeftArm 62.811958 -40.655128 -23.705523
LeftForeArm -60.454690 0.000000 86.852074
LeftHand 5.332038 -0.000000 -10.443160
LeftHandThumb1 -26.253704 0.000000 33.147579
RightShoulder -13.690082 21.411232 -41.389054
RightArm 81.601567 66.372534 43.877424
RightForeArm 31.341129 0.000000 77.455701
RightHand 15.450740 -0.000000 31.474640
RightHandThumb1 -24.326973 -0.000000 -32.862282
LeftUpLeg -3.940323 8.459191 -3.093727
LeftLeg -6.863521 -0.000000 0.000000
LeftFoot -17.857329 25.564349 -14.158199
LeftToeBase 25.619478 -0.000000 -0.000000
RightUpLeg -3.456133 -12.929041 -5.305730
RightLeg -3.704089 -0.000000 0.000000
RightFoot -19.506537 -22.381061 20.242430
RightToeBase 24.641943 -0.000000 -0.000000
1367
root 17.638435 35.628098 -20.398064 -168.988783 -4.943202 178.394981
Spine -22.769276 -2.274398 12.571609
Head 25.556536 -5.557753 17.046928
LeftShoulder -17.486047 -65.637555 67.737280
LeftArm 62.935660 -40.715040 -23.850169
LeftForeArm -60.615926 0.000000 87.091920
LeftHand 5.316831 -0.000000 -10.432828
LeftHandThumb1 -26.253704 0.000000 33.147579
RightShoulder -13.731729 21.396185 -41.134037
RightArm 81.738992 66.343120 43.919172
RightForeArm 31.225093 -0.000000 77.458432
RightHand 15.364709 -0.000000 31.444911
RightHandThumb1 -24.326973 -0.000000 -32.862282
LeftUpLeg -3.973339 8.445899 -3.167509
LeftLeg -6.855816 -0.000000 0.000000
LeftFoot -17.853313 25.529190 -14.083323
LeftToeBase 25.484109 -0.000000 -0.000000
RightUpLeg -3.423383 -13.060441 -5.349239
RightLeg -3.780821 -0.000000 0.000000
RightFoot -19.483863 -22.372400 20.313060
RightToeBase 24.626193 -0.000000 -0.000000
1368
root 17.610995 35.624801 -20.408498 -168.945151 -5.022064 178.369198
Spine -22.868584 -2.319103 12.828400
Head 25.554314 -5.735425 17.296559
LeftShoulder -17.355988 -65.723784 67.833218
LeftArm 62.902009 -40.724802 -23.898252
LeftForeArm -60.722945 0.000000 87.370911
LeftHand 5.334186 -0.000000 -10.339916
LeftHandThumb1 -26.253704 0.000000 33.147579
RightShoulder -13.731144 21.378376 -40.873310
RightArm 81.980616 66.318333 44.071082
RightForeArm 30.996304 -0.000000 77.464877
RightHand 15.251223 -0.000000 31.388715
RightHandThumb1 -24.326973 -0.000000 -32.862282
LeftUpLeg -4.005308 8.460308 -3.243648
LeftLeg -6.849876 -0.000000 0.000000
LeftFoot -17.866977 25.468919 -14.010578
LeftToeBase 25.473652 -0.000000 -0.000000
RightUpLeg -3.387721 -13.133954 -5.408788
RightLeg -3.848472 -0.000000 0.000000
RightFoot -19.475299 -22.369190 20.389116
RightToeBase 24.584989 -0.000000 -0.000000
1369
root 17.580239 35.621855 -20.420002 -168.915454 -5.086894 178.339492
Spine -22.943633 -2.343628 13.084532
Head 25.574996 -5.846328 17.559843
LeftShoulder -17.169290 -65.719793 67.869781
LeftArm 62.882581 -40.832919 -23.946211
LeftForeArm -60.738396 -0.000000 87.623244
LeftHand 5.307918 -0.000000 -10.474908
LeftHandThumb1 -26.253704 0.000000 33.147579
RightShoulder -13.760714 21.398170 -40.646874
RightArm 82.097420 66.261527 44.131997
RightForeArm 30.999247 0.000000 77.431698
RightHand 15.134475 -0.000000 31.510732
RightHandThumb1 -24.326973 -0.000000 -32.862282
LeftUpLeg -4.016309 8.455719 -3.323588
LeftLeg -6.847013 -0.000000 0.000000
LeftFoot -17.885296 25.426272 -13.921072
LeftToeBase 25.579073 -0.000000 -0.000000
RightUpLeg -3.354481 -13.274513 -5.468842
RightLeg -3.894882 -0.000000 0.000000
RightFoot -19.435998 -22.264190 20.550988
RightToeBase 24.325067 -0.000000 -0.000000
1370
root 17.549620 35.618628 -20.430831 -168.906224 -5.123566 178.304871
Spine -22.962737 -2.332376 13.313743
Head 25.502696 -5.948963 17.892982
LeftShoulder -17.102595 -65.737755 67.958568
LeftArm 62.961079 -40.878227 -24.051230
LeftForeArm -60.943263 0.000000 87.841399
LeftHand 5.357678 -0.000000 -10.481970
LeftHandThumb1 -26.253704 0.000000 33.147579
RightShoulder -13.833325 21.375111 -40.420587
RightArm 82.154878 66.244958 44.155416
RightForeArm 30.905567 -0.000000 77.482859
RightHand 15.071157 -0.000000 31.294119
RightHandThumb1 -24.326973 -0.000000 -32.862282
LeftUpLeg -4.013792 8.455250 -3.408251
LeftLeg -6.826488 -0.000000 0.000000
LeftFoot -17.916724 25.399811 -13.870306
LeftToeBase 25.552534 -0.000000 -0.000000
RightUpLeg -3.301550 -13.374819 -5.546155
RightLeg -3.951446 -0.000000 0.000000
RightFoot -19.398854 -22.258076 20.538183
RightToeBase 24.302973 -0.000000 -0.000000
